<svg width="100" height="100" viewBox="0 0 100 100" fill="none" xmlns="http://www.w3.org/2000/svg">
<path d="M95.3177 42.7527H85.6208V36.5651H95.3177C95.8206 36.5651 96.2884 36.307 96.5568 35.8817C96.8249 35.4565 96.8564 34.9231 96.6398 34.4693C95.9376 32.9979 94.9601 31.7024 93.7345 30.6186C93.1282 30.0828 92.2025 30.1397 91.6667 30.7457C91.131 31.3518 91.1878 32.2776 91.7939 32.8135C92.0861 33.0719 92.3597 33.3461 92.614 33.6354H84.1558C83.3466 33.6354 82.6909 34.2912 82.6909 35.1002V44.2176C82.6909 45.0266 83.3466 45.6824 84.1558 45.6824H92.6087C90.8958 47.6225 88.3968 48.793 85.7466 48.793C83.2499 48.793 80.8634 47.7649 79.1433 45.9647C78.6386 43.1383 76.0095 40.8262 73.0243 40.8449H69.313V36.0402H76.4452C76.9804 36.0402 77.473 35.7485 77.73 35.2791C79.3363 32.3467 82.4079 30.525 85.7466 30.525C85.9519 30.525 86.1591 30.5318 86.3626 30.5453C87.1708 30.599 87.8677 29.9879 87.921 29.1807C87.9745 28.3735 87.3636 27.6756 86.5564 27.6221C86.2888 27.6043 86.0161 27.5953 85.7466 27.5953C81.6339 27.5953 77.8284 29.6875 75.6142 33.1106H69.313V31.9973C69.313 28.4588 66.4341 25.5799 62.8956 25.5799C60.9038 25.5799 59.121 26.4922 57.9431 27.9207C56.7652 26.4922 54.9824 25.5799 52.9906 25.5799C50.9988 25.5799 49.2159 26.4922 48.038 27.9207C46.8601 26.4922 45.0773 25.5799 43.0855 25.5799C40.3741 25.5799 38.0519 27.2709 37.1134 29.6529C36.0261 28.8068 34.6616 28.301 33.1804 28.301C30.197 28.301 27.6825 30.3477 26.9671 33.1106H24.3849C24.2044 32.8318 24.0124 32.5606 23.8105 32.2984C23.3165 31.6576 22.3966 31.5389 21.7558 32.0328C21.115 32.5268 20.9962 33.4467 21.4904 34.0873C21.78 34.4629 22.0421 34.8641 22.2695 35.2791C22.5265 35.7485 23.0191 36.0402 23.5542 36.0402H26.763V43.2777H23.5542C23.0191 43.2777 22.5265 43.5695 22.2695 44.0389C20.6632 46.9713 17.5915 48.793 14.2529 48.793C11.6029 48.793 9.10364 47.6225 7.39075 45.6824H15.8437C16.6529 45.6824 17.3085 45.0266 17.3085 44.2176V35.1002C17.3085 34.2912 16.6529 33.6354 15.8437 33.6354H7.39094C9.10403 31.6953 11.6027 30.525 14.2531 30.525C14.9911 30.525 15.7249 30.6131 16.4337 30.7865C17.2193 30.9793 18.0126 30.4979 18.205 29.7121C18.3972 28.9264 17.9163 28.1334 17.1306 27.941C16.1939 27.7117 15.2257 27.5953 14.2531 27.5953C9.62825 27.5953 5.35266 30.2936 3.36028 34.4693C3.14368 34.9233 3.17512 35.4565 3.44348 35.8817C3.71165 36.307 4.17942 36.5651 4.68235 36.5651H14.3792V42.7527H4.68215C4.17922 42.7527 3.71145 43.0108 3.44329 43.4361C3.17493 43.8613 3.14348 44.3947 3.36008 44.8484C5.35247 49.0242 9.62844 51.7227 14.2529 51.7227C18.3656 51.7227 22.171 49.6305 24.3853 46.2074H26.8277C27.2677 49.3203 29.9482 51.7227 33.1804 51.7227C34.7782 51.7227 36.2404 51.1344 37.3648 50.1647C38.4263 52.2483 40.5913 53.6795 43.0855 53.6795C44.6607 53.6795 46.1042 53.108 47.2224 52.1627C48.2661 54.2969 50.4593 55.7707 52.9907 55.7707C55.1564 55.7707 57.1054 54.7045 58.2773 52.994C59.3449 53.6477 61.4636 53.7422 62.8827 53.6795L55.2482 58.6133C52.5771 60.3395 50.9825 63.2686 50.9825 66.4488C50.9825 67.2578 51.6382 67.9137 52.4474 67.9137C53.2566 67.9137 53.9122 67.2578 53.9122 66.4488C53.9122 64.2672 55.0062 62.2578 56.838 61.0738L68.6431 53.4447C69.1886 53.0922 69.4366 52.4229 69.2531 51.8C69.0695 51.1772 68.4976 50.7496 67.8482 50.7496H61.1575C59.2343 50.7496 57.6698 49.185 57.6698 47.2619C57.687 45.507 59.0966 43.819 61.1575 43.7742H73.0243C74.5171 43.7742 75.8177 44.7842 76.1872 46.2305L78.0243 53.4182C78.4415 55.0506 78.0468 56.7983 76.9689 58.0928L66.7226 70.3957C64.0825 73.3779 61.2599 77.0678 61.4306 81.3494V98.5352C61.4306 99.3442 62.0863 100 62.8954 100C63.7046 100 64.3603 99.3442 64.3603 98.5352V81.3498C64.1657 77.7799 66.9312 74.6844 68.9824 72.2606L79.2198 59.968C80.898 57.9531 81.512 55.2336 80.8628 52.693L80.2792 50.4094C81.956 51.2621 83.8265 51.7225 85.7464 51.7225C90.371 51.7225 94.6468 49.0242 96.6392 44.8483C96.8558 44.3944 96.8243 43.8611 96.556 43.436C96.2884 43.0108 95.8208 42.7527 95.3177 42.7527ZM33.1806 48.793C31.2573 48.793 29.6929 47.2283 29.6929 45.3053V34.7184C29.6929 32.7953 31.2575 31.2307 33.1806 31.2307C35.1036 31.2307 36.6681 32.7953 36.6681 34.7184V45.3053C36.6681 47.2283 35.1034 48.793 33.1806 48.793ZM43.0857 50.7498C41.1624 50.7498 39.598 49.1852 39.598 47.2621V31.9971C39.598 30.074 41.1626 28.5094 43.0857 28.5094C45.0087 28.5094 46.5734 30.074 46.5734 31.9971V47.2621C46.5734 49.1854 45.0087 50.7498 43.0857 50.7498ZM52.9907 52.841C51.0675 52.841 49.5031 51.2764 49.5031 49.3533V31.9971C49.5031 30.074 51.0677 28.5094 52.9907 28.5094C54.9138 28.5094 56.4782 30.074 56.4782 31.9971V42.8774C55.4017 44.0256 54.7404 45.5678 54.7404 47.2621C54.7404 48.6975 55.2142 50.0242 56.0136 51.0945C55.4023 52.1621 54.2655 52.841 52.9907 52.841ZM59.4081 41.0893V31.9971C59.4081 30.074 60.9728 28.5094 62.8958 28.5094C64.8189 28.5094 66.3835 30.074 66.3835 31.9971V40.8447H61.1577C60.5513 40.8447 59.9648 40.9313 59.4081 41.0893Z" fill="#45CDFF"/>
<path d="M29.6929 67.4084V55.4998C29.6929 54.6908 29.0372 54.035 28.228 54.035C27.4188 54.035 26.7632 54.6908 26.7632 55.4998V67.4084C26.7632 70.2752 27.7593 73.0789 29.5677 75.3031C30.9528 77.0068 31.7157 79.1541 31.7157 81.3496V98.5352C31.7157 99.3442 32.3714 100 33.1806 100C33.9897 100 34.6454 99.3442 34.6454 98.5352V81.3498C34.6454 78.483 33.6493 75.6793 31.8409 73.4551C30.456 71.7514 29.6929 69.6041 29.6929 67.4084Z" fill="black"/>
<path d="M50 10.11C50.8092 10.11 51.4648 9.4541 51.4648 8.64512V1.46484C51.4648 0.655859 50.8092 0 50 0C49.1908 0 48.5352 0.655859 48.5352 1.46484V8.64512C48.5352 9.4541 49.1908 10.11 50 10.11Z" fill="black"/>
<path d="M59.4354 12.8742C59.6802 13.0313 59.9538 13.1061 60.2245 13.1061C60.7069 13.1061 61.1794 12.8678 61.4591 12.4314L63.3556 9.47285C63.7921 8.7918 63.5938 7.88574 62.9126 7.44922C62.2319 7.0125 61.3257 7.21074 60.889 7.89199L58.9925 10.8506C58.5559 11.5316 58.7542 12.4377 59.4354 12.8742Z" fill="black"/>
<path d="M67.3343 21.4029C67.5321 21.4029 67.7329 21.3627 67.9253 21.2775L71.14 19.8574C71.88 19.5307 72.215 18.6656 71.888 17.9256C71.561 17.1854 70.696 16.8504 69.9562 17.1775L66.7415 18.5977C66.0015 18.9244 65.6665 19.7895 65.9935 20.5295C66.2355 21.0771 66.7718 21.4029 67.3343 21.4029Z" fill="black"/>
<path d="M38.5408 12.4315C38.8206 12.8678 39.2931 13.1061 39.7753 13.1061C40.046 13.1061 40.3197 13.0311 40.5644 12.8742C41.2455 12.4377 41.4439 11.5317 41.0074 10.8506L39.1109 7.892C38.6742 7.21075 37.7681 7.0129 37.0872 7.44923C36.4062 7.88575 36.2078 8.79181 36.6443 9.47286L38.5408 12.4315Z" fill="black"/>
<path d="M28.8602 19.8576L32.0749 21.2777C32.2673 21.3629 32.4683 21.4031 32.6659 21.4031C33.2282 21.4031 33.7647 21.0774 34.0065 20.5297C34.3335 19.7897 33.9985 18.9248 33.2585 18.5979L30.0438 17.1777C29.3046 16.8512 28.439 17.1858 28.112 17.9258C27.7852 18.6658 28.1202 19.5309 28.8602 19.8576Z" fill="black"/>
</svg>
