<svg width="100" height="100" viewBox="0 0 100 100" fill="none" xmlns="http://www.w3.org/2000/svg">
<g clip-path="url(#clip0_6002_127)">
<path d="M98.674 40.842L92.3129 38.2062C91.3625 34.7895 89.9988 31.5023 88.2484 28.4082L90.8826 22.051C91.2152 21.2482 91.0316 20.324 90.4172 19.7096L80.2832 9.57266C79.6687 8.9582 78.7447 8.77422 77.942 9.10664L71.5756 11.7428C68.4811 9.99395 65.1937 8.63184 61.7766 7.68262L59.1453 1.32852C58.8129 0.525781 58.0297 0.00214844 57.1605 0.00195312L42.827 0H42.8268C41.9578 0 41.1746 0.523437 40.842 1.32598L38.2062 7.68711C34.7895 8.6375 31.5023 10.0012 28.4082 11.7516L22.0508 9.11738C21.248 8.78477 20.3238 8.96855 19.7094 9.58281L9.57246 19.7168C8.95801 20.3312 8.77402 21.2553 9.10645 22.0582L11.7426 28.4246C9.99356 31.5191 8.63164 34.8064 7.68242 38.2236L1.32852 40.8547C0.525781 41.1871 0.00214844 41.9703 0.00195312 42.8395L0 57.173C0 58.042 0.523242 58.8254 1.32598 59.1582L7.68711 61.7939C8.6375 65.2107 10.0012 68.4978 11.7516 71.592L9.11738 77.9492C8.78477 78.752 8.96836 79.6762 9.58281 80.2906L19.7168 90.4275C20.3312 91.042 21.2553 91.226 22.0582 90.8936L28.4244 88.2574C31.5191 90.0064 34.8066 91.3686 38.2236 92.3176L40.8547 98.6717C41.1871 99.4744 41.9703 99.998 42.8395 99.9982L57.173 100C58.042 100 58.8254 99.477 59.158 98.6742L61.7938 92.3133C65.2107 91.3627 68.4978 89.9992 71.5918 88.2486L77.949 90.8828C78.7518 91.2154 79.676 91.0316 80.2904 90.4174L90.4273 80.2834C91.0418 79.6689 91.2258 78.7449 90.8934 77.942L88.2572 71.5756C90.0063 68.4811 91.3682 65.1937 92.3174 61.7766L98.6715 59.1455C99.4742 58.8131 99.9978 58.0299 99.998 57.1607L100 42.8271C100 41.958 99.4768 41.1746 98.674 40.842ZM95.7014 55.7246L89.6906 58.2135C89.0623 58.4736 88.5943 59.0158 88.4289 59.6754C87.4902 63.4148 86.0078 66.9936 84.0223 70.3117C83.6732 70.8949 83.6207 71.6088 83.8809 72.2367L86.3746 78.2592L78.2682 86.3633L72.2537 83.8711C71.6252 83.6107 70.9107 83.6633 70.3273 84.0129C67.0096 86.0002 63.4314 87.4844 59.6924 88.4246C59.0334 88.5902 58.4916 89.058 58.2314 89.6857L55.7383 95.7027L44.2758 95.7012L41.7869 89.6904C41.5268 89.0621 40.9846 88.5941 40.325 88.4287C36.5857 87.4902 33.0072 86.0076 29.6887 84.0219C29.1055 83.673 28.3916 83.6203 27.7637 83.8805L21.7412 86.3742L13.6371 78.268L16.1293 72.2535C16.3896 71.6252 16.3371 70.9106 15.9875 70.3271C14.0002 67.0094 12.516 63.4312 11.576 59.6922C11.4104 59.0332 10.9426 58.4914 10.3148 58.2313L4.29785 55.7381L4.29941 44.2756L10.3102 41.7867C10.9385 41.5266 11.4064 40.9844 11.5719 40.3248C12.5105 36.5854 13.993 33.0066 15.9785 29.6885C16.3275 29.1053 16.3801 28.3914 16.1199 27.7635L13.6262 21.741L21.7326 13.6369L27.7471 16.1291C28.3754 16.3893 29.0898 16.3369 29.6734 15.9873C32.9912 14 36.5693 12.5158 40.3084 11.5758C40.9674 11.4102 41.5092 10.9424 41.7693 10.3146L44.2625 4.29766L55.725 4.29922L58.2139 10.31C58.474 10.9383 59.0162 11.4062 59.6758 11.5717C63.4152 12.5104 66.9939 13.9928 70.3121 15.9783C70.8951 16.3273 71.609 16.3797 72.2371 16.1197L78.2598 13.626L86.3639 21.7322L83.8717 27.7467C83.6113 28.375 83.6639 29.0896 84.0135 29.673C86.0008 32.9908 87.485 36.5689 88.425 40.308C88.5906 40.967 89.0584 41.5088 89.6861 41.7689L95.7031 44.2621L95.7014 55.7246Z" fill="#45CDFF"/>
<path d="M50.0001 17.514C32.0874 17.514 17.5142 32.0871 17.5142 50C17.5142 67.9129 32.0874 82.4859 50.0001 82.4859C67.9128 82.4859 82.486 67.9127 82.486 50C82.486 32.0873 67.9128 17.514 50.0001 17.514ZM44.8462 77.7152L46.4159 55.572C46.48 54.6683 45.97 53.8215 45.1413 53.4551C40.7806 51.5277 37.9628 47.2049 37.9628 42.4422C37.9628 39.0816 39.3901 35.9074 41.7749 33.6619V38.5359C41.7749 39.1056 42.0013 39.6521 42.4042 40.0551L45.1468 42.7974C45.5495 43.2004 46.096 43.4267 46.6659 43.4267H53.3345C53.9042 43.4267 54.4507 43.2004 54.8536 42.7974L57.5962 40.0551C57.9991 39.6521 58.2255 39.1056 58.2255 38.5359V33.6619C60.6103 35.9076 62.0376 39.0816 62.0376 42.4422C62.0376 47.2049 59.2198 51.5277 54.8591 53.4551C54.0304 53.8213 53.5204 54.6681 53.5845 55.572L55.1542 77.7152C53.4827 78.0254 51.7603 78.189 50.0003 78.189C48.2403 78.189 46.5179 78.0254 44.8462 77.7152ZM59.3814 76.582L57.9718 56.6982C63.0978 53.8303 66.3343 48.3892 66.3343 42.4422C66.3343 36.1683 62.6698 30.3744 56.9983 27.6814C56.3327 27.3652 55.5517 27.4125 54.9288 27.8062C54.306 28.2 53.9284 28.8853 53.9284 29.6222V37.6461L52.4444 39.1301H47.5558L46.0718 37.6461V29.6222C46.0718 28.8855 45.6942 28.2 45.0714 27.8062C44.4485 27.4125 43.6675 27.3654 43.0019 27.6814C37.3304 30.3744 33.6659 36.1685 33.6659 42.4422C33.6659 48.389 36.9024 53.8303 42.0284 56.6982L40.6188 76.582C29.6737 72.7078 21.811 62.2556 21.811 50C21.811 34.4564 34.4565 21.8109 50.0001 21.8109C65.5437 21.8109 78.1892 34.4564 78.1892 50C78.1892 62.2556 70.3265 72.7078 59.3814 76.582Z" fill="#001B2C"/>
</g>
<defs>
<clipPath id="clip0_6002_127">
<rect width="100" height="100" fill="white"/>
</clipPath>
</defs>
</svg>
